# xmcd
#
# Track frame offsets: 
#        182
#        19392
#        37827
#        55485
#        74277
#        89335
#        101900
#        120322
#        140562
#        156537
#        172162
#        187807
#
# Disc length: 2803 seconds
#
# Revision: 2
# Processed by: cddbd v1.4PL0 Copyright (c) Steve Scherf et al.
# Submitted via: ExactAudioCopy v0.90b4
#
DISCID=a90af10c
DTITLE=Hana Hegerova - Potmesily host
DYEAR=1900
DGENRE=
TTITLE0=Stin stiha stin
TTITLE1=Jinde
TTITLE2=Levandulova
TTITLE3=Gabriel
TTITLE4=Vsechno nejlepsi
TTITLE5=Vune
TTITLE6=Denim blue
TTITLE7=Zit a nechat zit
TTITLE8=Vana plna fialek
TTITLE9=Kolotoc
TTITLE10=Tata mel rad Maju Westovou
TTITLE11=Potmesily host
EXTD=
EXTT0=
EXTT1=
EXTT2=
EXTT3=
EXTT4=
EXTT5=
EXTT6=
EXTT7=
EXTT8=
EXTT9=
EXTT10=
EXTT11=
PLAYORDER=
